<svg xmlns="http://www.w3.org/2000/svg" width="226.964" height="21.379" viewBox="0 0 226.964 21.379">
  <g id="Group_38" data-name="Group 38" transform="translate(-202.902 -921.628)">
    <g id="Group_21" data-name="Group 21" transform="translate(202.902 921.628)" style="isolation: isolate">
      <g id="Group_18" data-name="Group 18" style="isolation: isolate">
        <path id="Path_582" data-name="Path 582" d="M2598.417,2399.59l-2.221,18.6H2593.5l.722-6.22h-4.165l-4.193,6.22h-1.888c-.583,0-.639-.333-.639-.722a.647.647,0,0,1,.195-.417l3.332-5.081c-.472-.111-.639-.25-.639-.722a.613.613,0,0,1,.167-.417l1.028-1.527h1.249l5.414-8.191a2.8,2.8,0,0,1,2.554-1.527h1.777Zm-6.608,9.718h2.749l.638-5.165Z" transform="translate(-2583.34 -2399.118)"/>
        <path id="Path_583" data-name="Path 583" d="M2661.474,2399.83l-7.663,18.52h-1.555c-.555,0-.916-.166-.916-.611a1.131,1.131,0,0,1,.139-.5l7.219-17.409Z" transform="translate(-2627.74 -2399.275)"/>
        <path id="Path_584" data-name="Path 584" d="M2705.986,2399.83c3.027,0,4.526,1.583,4.526,4.248,0,3.082-2.749,6.469-6.386,7.385l2.3,7.524a1.18,1.18,0,0,1,.055.305c0,.361.028.639-.472.8l-1.777.555-3-9.329-2.916,7.024h-1.61c-.583,0-.972-.166-.972-.611a1.128,1.128,0,0,1,.139-.5l6.136-14.8c-.5-.028-.861-.222-.861-.611a1.087,1.087,0,0,1,.111-.5l.638-1.5Zm-1.111,2.666-2.638,6.414a2.16,2.16,0,0,0,.417.055,4.336,4.336,0,0,0,3.97-1.943,3.994,3.994,0,0,0,1.139-2.666c0-1.194-.389-1.86-1.583-1.86Z" transform="translate(-2656.73 -2399.275)"/>
        <path id="Path_585" data-name="Path 585" d="M2817.727,2399.83l-6.3,15.188a6.947,6.947,0,0,1-1.361,2.471,4.156,4.156,0,0,1-2.8,1.416,3.3,3.3,0,0,1-3.36-3.249,3.625,3.625,0,0,1,.361-1.527l1-2.416h1.749a.63.63,0,0,1,.722.667.937.937,0,0,1-.139.472l-.861,2.082a1.467,1.467,0,0,0-.222.639c0,.5.167.749.639.749.861,0,1.194-.583,1.638-1.666l6.136-14.827h2.8Z" transform="translate(-2727.351 -2399.275)"/>
        <path id="Path_586" data-name="Path 586" d="M2860.62,2412.89a18.2,18.2,0,0,1,3.193-9.662c2.221-3.332,4.5-5,7.33-5,1.944,0,3.526,2,3.526,5.248a17.5,17.5,0,0,1-3,9.163c-2.193,3.47-4.581,5.22-7.274,5.22C2862.231,2417.86,2860.62,2415.944,2860.62,2412.89Zm9.829-11.883c-1.444,0-3.082,1.3-4.609,3.832a15.245,15.245,0,0,0-2.527,7.608c0,1.721.583,2.832,1.527,2.832,1.721,0,2.971-1.222,4.387-3.554,1.888-3.082,2.832-5.8,2.832-8C2872.06,2402.006,2871.393,2401.007,2870.449,2401.007Z" transform="translate(-2764.386 -2398.23)"/>
        <path id="Path_587" data-name="Path 587" d="M2931.745,2399.83c3.027,0,4.526,1.583,4.526,4.248,0,3.082-2.749,6.469-6.386,7.385l2.3,7.524a1.18,1.18,0,0,1,.056.305c0,.361.028.639-.472.8l-1.777.555-3-9.329-2.915,7.024h-1.61c-.583,0-.972-.166-.972-.611a1.131,1.131,0,0,1,.139-.5l6.136-14.8c-.5-.028-.861-.222-.861-.611a1.09,1.09,0,0,1,.111-.5l.639-1.5Zm-1.111,2.666-2.638,6.414a2.16,2.16,0,0,0,.417.055,4.336,4.336,0,0,0,3.97-1.943,3.994,3.994,0,0,0,1.138-2.666c0-1.194-.389-1.86-1.583-1.86Z" transform="translate(-2804.136 -2399.275)"/>
      </g>
      <g id="Group_19" data-name="Group 19" transform="translate(139.548 0.555)" style="isolation: isolate">
        <path id="Path_588" data-name="Path 588" d="M2990.973,2399.83h2.887a7.64,7.64,0,0,1,2.249.222,4.162,4.162,0,0,1,3.387,4.276c0,6.8-6.081,14.383-11.412,14.383a2.444,2.444,0,0,1-2.666-2.166,2.746,2.746,0,0,1,.278-1.25l5.331-12.855c-.444-.055-.778-.222-.778-.611a1.09,1.09,0,0,1,.111-.5l.611-1.5Zm2.8,2.721-5.581,13.466a6.126,6.126,0,0,0,.75-.083c3.137-.472,7.8-6.358,7.8-10.773,0-1.61-.139-2.61-2.083-2.61Z" transform="translate(-2985.42 -2399.83)"/>
      </g>
      <g id="Group_20" data-name="Group 20" transform="translate(159.592 0)" style="isolation: isolate">
        <path id="Path_589" data-name="Path 589" d="M3058.247,2399.59l-2.221,18.6h-2.693l.722-6.22h-4.165l-4.192,6.22h-1.888c-.583,0-.639-.333-.639-.722a.647.647,0,0,1,.194-.417l3.332-5.081c-.472-.111-.639-.25-.639-.722a.612.612,0,0,1,.167-.417l1.027-1.527h1.25l5.414-8.191a2.8,2.8,0,0,1,2.554-1.527h1.777Zm-6.608,9.718h2.749l.639-5.165Z" transform="translate(-3043.17 -2399.118)"/>
        <path id="Path_590" data-name="Path 590" d="M3121.3,2399.83l-.195,11.106,4.582-11.106h2.8l-7.663,18.52h-1.694c-.639,0-.75-.25-.75-.805l.139-11.023-4.887,11.828h-1.555c-.555,0-.916-.166-.916-.611a1.131,1.131,0,0,1,.139-.5l7.219-17.409Z" transform="translate(-3087.57 -2399.275)"/>
      </g>
    </g>
    <path id="Path_1023" data-name="Path 1023" d="M2915.2,2399.83l-7.687,18.577h-1.588c-.557,0-.919-.167-.919-.613a1.137,1.137,0,0,1,.139-.5l6.156-14.845c-.5-.028-.836-.2-.836-.613a1.138,1.138,0,0,1,.139-.5l.613-1.5Z" transform="translate(-2485.338 -1476.956)"/>
  </g>
</svg>
