<svg xmlns="http://www.w3.org/2000/svg" width="174.049" height="21.108" viewBox="0 0 174.049 21.108">
  <g id="Group_7" data-name="Group 7" style="isolation: isolate">
    <g id="Group_2" data-name="Group 2" style="isolation: isolate">
      <path id="Path_5" data-name="Path 5" d="M2733.682,2399.59l-2.243,18.782h-2.719l.729-6.279h-4.2l-4.233,6.279H2719.1c-.588,0-.645-.336-.645-.729a.653.653,0,0,1,.2-.421l3.364-5.129c-.477-.112-.645-.252-.645-.729a.619.619,0,0,1,.168-.421l1.037-1.542h1.262l5.466-8.27a2.825,2.825,0,0,1,2.579-1.542Zm-6.672,9.812h2.775l.645-5.214Z" transform="translate(-2718.46 -2399.59)"/>
      <path id="Path_6" data-name="Path 6" d="M2796.692,2399.83l-7.737,18.7h-1.571c-.56,0-.925-.168-.925-.617a1.149,1.149,0,0,1,.14-.5l7.289-17.576Z" transform="translate(-2762.633 -2399.746)"/>
      <path id="Path_7" data-name="Path 7" d="M2841.2,2399.83c3.056,0,4.57,1.6,4.57,4.289,0,3.112-2.776,6.531-6.448,7.457l2.326,7.6a1.188,1.188,0,0,1,.056.308c0,.365.028.645-.476.813l-1.794.561-3.027-9.418-2.944,7.092h-1.626c-.589,0-.981-.168-.981-.617a1.14,1.14,0,0,1,.14-.5l6.195-14.941c-.5-.028-.869-.224-.869-.617a1.094,1.094,0,0,1,.112-.5l.645-1.514Zm-1.121,2.691L2837.42,2409a2.174,2.174,0,0,0,.42.056,4.38,4.38,0,0,0,4.009-1.962A4.033,4.033,0,0,0,2843,2404.4c0-1.206-.392-1.878-1.6-1.878Z" transform="translate(-2791.475 -2399.746)"/>
    </g>
    <g id="Group_3" data-name="Group 3" transform="translate(77.285 0.084)" style="isolation: isolate">
      <path id="Path_8" data-name="Path 8" d="M2950.009,2399.83l-1.935,12.558,8.325-12.558h4.261l-7.737,18.7h-1.569c-.561,0-.925-.168-.925-.617a1.14,1.14,0,0,1,.14-.5l4.26-10.287-7.541,11.409h-1.766c-.477,0-.841-.224-.841-.7a2.146,2.146,0,0,1,.056-.421l1.57-10.456-4.793,11.577h-1.569c-.561,0-.925-.168-.925-.617a1.148,1.148,0,0,1,.14-.5l7.289-17.576Z" transform="translate(-2939.02 -2399.83)"/>
    </g>
    <g id="Group_4" data-name="Group 4" transform="translate(103.099)" style="isolation: isolate">
      <path id="Path_9" data-name="Path 9" d="M3027.912,2399.59l-2.242,18.782h-2.719l.729-6.279h-4.205l-4.233,6.279h-1.906c-.589,0-.645-.336-.645-.729a.656.656,0,0,1,.2-.421l3.364-5.129c-.477-.112-.645-.252-.645-.729a.621.621,0,0,1,.168-.421l1.037-1.542h1.261l5.466-8.27a2.825,2.825,0,0,1,2.58-1.542Zm-6.672,9.812h2.775l.645-5.214Z" transform="translate(-3012.69 -2399.59)"/>
      <path id="Path_10" data-name="Path 10" d="M3086.278,2400.15l.336,5.746,4.934-5.746h3.335l-8.185,9.531.28,9.054h-2.691l-.28-6-5.242,6h-1.85c-.393,0-.785-.112-.785-.392a1.135,1.135,0,0,1,.337-.869l7.484-8.522-.252-7.933c-.028-.617.2-.869.785-.869Z" transform="translate(-3053.901 -2399.954)"/>
      <path id="Path_11" data-name="Path 11" d="M3196.15,2399.83l-7.737,18.7h-1.6c-.561,0-.925-.168-.925-.617a1.14,1.14,0,0,1,.14-.5l6.195-14.941c-.5-.028-.841-.2-.841-.617a1.151,1.151,0,0,1,.14-.5l.617-1.514h4.008Z" transform="translate(-3125.2 -2399.746)"/>
    </g>
  </g>
</svg>
