<svg xmlns="http://www.w3.org/2000/svg" width="306.974" height="21.445" viewBox="0 0 306.974 21.445">
  <g id="Group_16" data-name="Group 16" style="isolation: isolate">
    <g id="Group_14" data-name="Group 14" style="isolation: isolate">
      <path id="Path_269" data-name="Path 269" d="M2349.743,2399.59l-2.228,18.66h-2.7l.724-6.239h-4.177l-4.206,6.239h-1.894c-.585,0-.641-.334-.641-.724a.648.648,0,0,1,.195-.418l3.342-5.1c-.473-.112-.641-.251-.641-.724a.613.613,0,0,1,.167-.418l1.03-1.532h1.253l5.431-8.216a2.805,2.805,0,0,1,2.562-1.532h1.782Zm-6.628,9.748h2.757l.641-5.18Z" transform="translate(-2334.62 -2399.116)"/>
      <path id="Path_270" data-name="Path 270" d="M2412.786,2399.83l-7.687,18.577h-1.56c-.557,0-.919-.167-.919-.613a1.131,1.131,0,0,1,.139-.5L2410,2399.83Z" transform="translate(-2378.947 -2399.273)"/>
      <path id="Path_271" data-name="Path 271" d="M2457.3,2399.83c3.036,0,4.54,1.587,4.54,4.261,0,3.091-2.757,6.489-6.406,7.408l2.311,7.548a1.172,1.172,0,0,1,.056.306c0,.362.028.641-.474.808l-1.782.557-3.008-9.358-2.924,7.046h-1.616c-.585,0-.975-.167-.975-.613a1.134,1.134,0,0,1,.139-.5l6.155-14.845c-.5-.028-.863-.223-.863-.613a1.09,1.09,0,0,1,.112-.5l.64-1.5Zm-1.115,2.674-2.646,6.434a2.169,2.169,0,0,0,.418.055,4.349,4.349,0,0,0,3.983-1.95,4.005,4.005,0,0,0,1.142-2.673c0-1.2-.39-1.866-1.587-1.866h-1.309Z" transform="translate(-2407.889 -2399.273)"/>
      <path id="Path_272" data-name="Path 272" d="M2571.774,2399.83l-1.086,2.618h-5.069l-2.228,5.4h5.348l-1.086,2.618H2562.3l-3.286,7.938h-1.588c-.529,0-.891-.167-.891-.613a1.137,1.137,0,0,1,.139-.5l6.155-14.845c-.5-.028-.835-.2-.835-.613a1.138,1.138,0,0,1,.139-.5l.613-1.5Z" transform="translate(-2479.28 -2399.273)"/>
      <path id="Path_273" data-name="Path 273" d="M2617.42,2412.936a18.254,18.254,0,0,1,3.2-9.692c2.229-3.342,4.512-5.013,7.353-5.013,1.95,0,3.537,2.005,3.537,5.264a17.553,17.553,0,0,1-3.008,9.191c-2.2,3.481-4.6,5.236-7.3,5.236C2619.035,2417.921,2617.42,2416,2617.42,2412.936Zm9.859-11.92c-1.448,0-3.091,1.309-4.624,3.843a15.3,15.3,0,0,0-2.534,7.631c0,1.727.585,2.841,1.532,2.841,1.727,0,2.98-1.226,4.4-3.565,1.894-3.092,2.84-5.821,2.84-8.021,0-1.727-.668-2.729-1.615-2.729Z" transform="translate(-2518.965 -2398.23)"/>
      <path id="Path_274" data-name="Path 274" d="M2688.577,2399.83c3.036,0,4.54,1.587,4.54,4.261,0,3.091-2.757,6.489-6.406,7.408l2.312,7.548a1.192,1.192,0,0,1,.056.306c0,.362.028.641-.474.808l-1.782.557-3.008-9.358-2.924,7.046h-1.615c-.585,0-.975-.167-.975-.613a1.131,1.131,0,0,1,.139-.5l6.155-14.845c-.5-.028-.864-.223-.864-.613a1.09,1.09,0,0,1,.112-.5l.641-1.5Zm-1.114,2.674-2.646,6.434a2.174,2.174,0,0,0,.418.055,4.349,4.349,0,0,0,3.983-1.95,4.005,4.005,0,0,0,1.142-2.673c0-1.2-.39-1.866-1.588-1.866h-1.309Z" transform="translate(-2558.651 -2399.273)"/>
      <path id="Path_275" data-name="Path 275" d="M2755.719,2404.692c-.306,0-.668-.167-.668-.363,0-.78.195-1.225.195-1.977,0-.836-.362-1.448-.947-1.448-1.866,0-5.042,3.147-6.8,9.135a7.065,7.065,0,0,0-.5,2.367,8.182,8.182,0,0,0,.028,1.17c.139.975.585,1.615,1.17,1.615.975,0,2.284-.947,3.37-2.7a19.661,19.661,0,0,0,1.421-2.869h1.782c.529,0,.7.223.7.7a11.848,11.848,0,0,1-2.506,4.623c-1.616,1.95-3.4,2.98-5.236,2.98s-3.426-1.782-3.426-4.206a13.907,13.907,0,0,1,1.031-5.4c2.312-6.545,6.183-10.082,9.163-10.082a3.59,3.59,0,0,1,3.454,3.732,8.02,8.02,0,0,1-.668,2.73h-1.56Z" transform="translate(-2601.673 -2398.23)"/>
      <path id="Path_276" data-name="Path 276" d="M2818.884,2399.83l-1.086,2.618h-5.013l-2.229,5.375h5.32l-1.086,2.618h-5.32l-2.228,5.347h5.988l-1.086,2.618h-5.013a2.359,2.359,0,0,1-2.4-3.286l5.236-12.672c-.446-.056-.78-.223-.78-.613a1.132,1.132,0,0,1,.139-.5l.613-1.5Z" transform="translate(-2640.941 -2399.273)"/>
      <path id="Path_277" data-name="Path 277" d="M2915.2,2399.83l-7.687,18.577h-1.588c-.557,0-.919-.167-.919-.613a1.137,1.137,0,0,1,.139-.5l6.156-14.845c-.5-.028-.836-.2-.836-.613a1.138,1.138,0,0,1,.139-.5l.613-1.5Z" transform="translate(-2706.433 -2399.273)"/>
      <path id="Path_278" data-name="Path 278" d="M3005.5,2399.83l-3.315,7.993h4.317l3.314-7.993h2.785l-7.687,18.577h-1.56c-.558,0-.919-.167-.919-.613a1.128,1.128,0,0,1,.139-.5l2.84-6.852H3001.1l-3.287,7.965h-1.56c-.557,0-.919-.167-.919-.613a1.134,1.134,0,0,1,.139-.5l2.841-6.824c-.5.028-.78-.2-.78-.641a.826.826,0,0,1,.055-.362l.7-1.643h1.114l3.314-7.993Z" transform="translate(-2765.309 -2399.273)"/>
      <path id="Path_279" data-name="Path 279" d="M3069.1,2399.83l-7.687,18.577h-1.56c-.557,0-.919-.167-.919-.613a1.131,1.131,0,0,1,.139-.5l7.241-17.463Z" transform="translate(-2806.767 -2399.273)"/>
      <path id="Path_280" data-name="Path 280" d="M3113.152,2408.758h4.4c.5,0,.752.167.752.585a9.6,9.6,0,0,1-1.615,3.649c-2.089,3.286-4.289,4.93-6.517,4.93s-3.481-1.476-3.481-4.373a12.156,12.156,0,0,1,.585-3.732c1.949-7.241,6.74-11.586,10.027-11.586,1.838,0,3.37,1.448,3.37,3.871a7.455,7.455,0,0,1-.7,2.506h-1.615c-.306,0-.724-.139-.724-.306,0-.585.334-1.114.334-2.061s-.39-1.42-.891-1.42c-1.977,0-4.651,2.674-6.656,7.8a9.286,9.286,0,0,0-1.031,3.816c0,1.56.167,2.841,1.337,2.841s2.507-1.337,3.955-3.9h-1.615c-.5,0-.836-.112-.836-.529a1,1,0,0,1,.167-.557Z" transform="translate(-2837.899 -2398.23)"/>
      <path id="Path_281" data-name="Path 281" d="M3176.936,2399.83l-3.315,7.993h4.317l3.314-7.993h2.785l-7.687,18.577h-1.56c-.557,0-.919-.167-.919-.613a1.134,1.134,0,0,1,.139-.5l2.841-6.852h-4.317l-3.286,7.965h-1.56c-.557,0-.919-.167-.919-.613a1.128,1.128,0,0,1,.139-.5l2.841-6.824c-.5.028-.78-.2-.78-.641a.82.82,0,0,1,.056-.362l.7-1.643h1.114l3.314-7.993h2.785Z" transform="translate(-2877.063 -2399.273)"/>
    </g>
  </g>
</svg>
